Zabardast Hyderabadi Movie  Hindi 2011 DVDRip BY ~~loveislifeforlovers@gmail.com~~NIKHIL

[img]http://www.easilysharing.com/images/86207484349451913011.jpg[/img]

Movie Details:

Starring:- Aziz Naser, Mast Ali, Adnan Sajid Khan (Gullu Dada) 
Directed By :- Aziz Naser
Written By:- Aziz Naser
Screenplay By:- Aziz Naser
Produced By:- Aziz Naser
Banner:- An Aziz Naser Film

[img]http://www.easilysharing.com/images/83336716341679486137.png[/img]

[img]http://www.easilysharing.com/images/19622962364102015154.jpg[/img]
[img]http://www.easilysharing.com/images/59670447025686247916.jpg[/img]
[img]http://www.easilysharing.com/images/58594783253532458919.jpg[/img]
[img]http://www.easilysharing.com/images/77149118349087874491.jpg[/img]
[img]http://www.easilysharing.com/images/11760043204495620425.jpg[/img]

[img]http://www.easilysharing.com/images/80448290375002423526.png[/img]

Format                           : AVI
Format/Info                      : Audio Video Interleave
Format profile                   : OpenDML
File size                        : 1.73 GiB
Duration                         : 1h 38mn
Overall bit rate                 : 2 510 Kbps
Writing application              : Lavf52.93.0

Video
ID                               : 0
Format                           : MPEG-4 Visual
Format profile                   : Simple@L1
Format settings, BVOP            : No
Format settings, QPel            : No
Format settings, GMC             : No warppoints
Format settings, Matrix          : Default (H.263)
Codec ID                         : DIVX
Codec ID/Info                    : Project Mayo
Codec ID/Hint                    : DivX 4
Duration                         : 1h 38mn
Bit rate                         : 2 304 Kbps
Width                            : 576 pixels
Height                           : 272 pixels
Display aspect ratio             : 2.2:1
Frame rate                       : 29.970 fps
Color space                      : YUV
Chroma subsampling               : 4:2:0
Bit depth                        : 8 bits
Scan type                        : Progressive
Compression mode                 : Lossy
Bits/(Pixel*Frame)               : 0.491
Stream size                      : 1.59 GiB (92%)
Writing library                  : Lavc52.108.0

Audio
ID                               : 1
Format                           : MPEG Audio
Format version                   : Version 1
Format profile                   : Layer 3
Mode                             : Joint stereo
Mode extension                   : MS Stereo
Codec ID                         : 55
Codec ID/Hint                    : MP3
Duration                         : 42mn 50s
Bit rate mode                    : Constant
Bit rate                         : 192 Kbps
Channel(s)                       : 2 channels
Sampling rate                    : 44.1 KHz
Compression mode                 : Lossy
Stream size                      : 58.8 MiB (3%)
Alignment                        : Aligned on interleaves
Interleave, duration             : 60 ms (1.80 video frames)
Interleave, preload duration     : 52 ms
Writing library                  : LAME3.98.4


[img]http://img847.imageshack.us/img847/5154/zabardast4.png[/img]
[img]http://img163.imageshack.us/img163/7380/zabardast6.png[/img]
[img]http://img714.imageshack.us/img714/1941/zabardast7.png[/img]
[img]http://img834.imageshack.us/img834/9215/zabardast9.png[/img]
[img]http://img600.imageshack.us/img600/9481/zabardast10.png[/img]
[img]http://img696.imageshack.us/img696/6385/zabardast11.png[/img]
[img]http://img84.imageshack.us/img84/9204/zabardast1.png[/img]
[img]http://img705.imageshack.us/img705/8313/zabardast3.png[/img]
[img]http://img824.imageshack.us/img824/7900/zabardast2.png[/img]

Ripped N uploaded by -- NIKHIL

pls forward ur comment for the further posing as such ones....

THIS TORRENT IS BROUGHT TO U BY

[img]http://i894.photobucket.com/albums/ac145/nikhilsweet/cooltext432403806.png[/img]